<svg width="40" height="40" viewBox="0 0 40 40" fill="none" xmlns="http://www.w3.org/2000/svg">
<g clip-path="url(#clip0_33_188)">
<path d="M8.90002 2.25755e-05C7.73052 -0.00261442 6.57201 0.225791 5.49102 0.672124C4.41003 1.11846 3.42786 1.77393 2.60089 2.60089C1.77393 3.42786 1.11846 4.41003 0.672124 5.49102C0.225791 6.57201 -0.00261442 7.73052 2.25755e-05 8.90002V31.1C-0.00261442 32.2695 0.225791 33.428 0.672124 34.509C1.11846 35.59 1.77393 36.5722 2.60089 37.3992C3.42786 38.2261 4.41003 38.8816 5.49102 39.3279C6.57201 39.7743 7.73052 40.0027 8.90002 40H31.1C32.2695 40.0027 33.428 39.7743 34.509 39.3279C35.59 38.8816 36.5722 38.2261 37.3992 37.3992C38.2261 36.5722 38.8816 35.59 39.3279 34.509C39.7743 33.428 40.0027 32.2695 40 31.1V8.90002C40.0027 7.73052 39.7743 6.57201 39.3279 5.49102C38.8816 4.41003 38.2261 3.42786 37.3992 2.60089C36.5722 1.77393 35.59 1.11846 34.509 0.672124C33.428 0.225791 32.2695 -0.00261442 31.1 2.25755e-05H8.90002ZM19.775 4.28002C23.6684 4.28002 27.1884 5.78336 29.8684 8.59169C31.9084 10.7117 33.055 12.9567 33.6417 15.9117C33.8417 16.895 33.8417 19.5784 33.6534 20.685C33.0298 24.2025 31.1012 27.3549 28.2534 29.5117C27.24 30.2784 24.76 31.6134 24.36 31.6134C24.2134 31.6134 24.2 31.4617 24.2667 30.8467C24.3867 29.86 24.5067 29.655 25.0667 29.42C25.96 29.0467 27.48 27.9634 28.4134 27.0284C30.0405 25.4021 31.197 23.3656 31.76 21.135C32.1067 19.7617 32.0667 16.7084 31.68 15.295C30.4667 10.8017 26.8 7.30836 22.3067 6.37502C21 6.10836 18.6267 6.10836 17.3067 6.37502C12.76 7.30836 9.00002 10.975 7.85336 15.5884C7.54669 16.8417 7.54669 19.895 7.85336 21.1484C8.61336 24.2017 10.5867 27.0017 13.1734 28.6684C13.68 29.0017 14.2934 29.3484 14.5467 29.455C15.1067 29.695 15.2267 29.895 15.3334 30.8817C15.4 31.4817 15.3834 31.655 15.24 31.655C15.1467 31.655 14.4667 31.3617 13.7467 31.015L13.68 30.965C9.56002 28.9384 6.92002 25.5084 5.96002 20.945C5.72002 19.7684 5.68002 16.9584 5.91002 15.8784C6.51002 12.9784 7.65669 10.7117 9.56336 8.70502C12.31 5.81002 15.8434 4.27836 19.7767 4.27836L19.775 4.28002ZM19.9984 8.96336C20.68 8.97002 21.3367 9.03002 21.8417 9.14002C26.4817 10.1734 29.775 14.82 29.135 19.43C28.8817 21.2867 28.2417 22.8134 27.1084 24.23C26.5484 24.9467 25.1884 26.1467 24.9484 26.1467C24.91 26.1467 24.8684 25.6934 24.8684 25.1417V24.1334L25.5617 23.3067C28.175 20.1767 27.9884 15.8034 25.135 12.9334C24.0284 11.8167 22.7484 11.16 21.095 10.8567C20.0284 10.66 19.8017 10.66 18.6817 10.8434C16.9817 11.1217 15.665 11.78 14.495 12.9367C11.6284 15.7767 11.4417 20.1734 14.055 23.3067L14.7434 24.1334V25.1467C14.7434 25.7067 14.6984 26.16 14.6434 26.16C14.5934 26.16 14.2034 25.8934 13.79 25.56L13.7334 25.5417C12.3467 24.435 11.12 22.4717 10.6134 20.5467C10.3067 19.3834 10.3067 17.1734 10.6267 16.0134C11.4667 12.8834 13.7734 10.455 16.9734 9.31502C17.6567 9.07336 18.8617 8.94836 19.9967 8.96336H19.9984ZM19.7817 13.9467C20.2984 13.9467 20.815 14.0467 21.1884 14.2434C22.0017 14.665 22.6684 15.485 22.9217 16.3417C23.695 18.9717 20.9084 21.275 18.3884 20.0984H18.3634C17.1767 19.5467 16.5367 18.505 16.5234 17.1484C16.5234 15.9267 17.2034 14.8634 18.3767 14.24C18.75 14.045 19.2667 13.9467 19.7834 13.9467H19.7817ZM19.7634 21.8267C21.41 21.82 22.6067 22.4084 23.0467 23.4434C23.3767 24.2167 23.2534 26.6634 22.6834 30.6134C22.2967 33.3734 22.0834 34.07 21.55 34.54C20.8167 35.19 19.7767 35.37 18.79 35.02H18.785C17.5917 34.5917 17.335 34.0117 16.845 30.6134C16.2767 26.6634 16.1517 24.2167 16.4817 23.4434C16.9184 22.4167 18.105 21.8334 19.765 21.8267H19.7634Z" fill="white"/>
</g>
<defs>
<clipPath id="clip0_33_188">
<rect width="40" height="40" fill="white"/>
</clipPath>
</defs>
</svg>
