<svg width="121" height="120" viewBox="0 0 121 120" fill="none" xmlns="http://www.w3.org/2000/svg">
<circle cx="60.5" cy="60" r="60" fill="#015239"/>
<path opacity="0.8" d="M63.25 36.3L63.175 36.475L55.925 53.3H48.8C47.1 53.3 45.5 53.625 44 54.275L48.375 43.825L48.475 43.6L48.625 43.2C48.7 43.025 48.75 42.875 48.825 42.75C52.1 35.175 55.8 33.45 63.25 36.3Z" fill="#B8FFE1"/>
<path d="M76.725 53.8001C75.6 53.475 74.425 53.3 73.2 53.3H55.925L63.175 36.475L63.25 36.3C63.6 36.425 63.975 36.6 64.35 36.725L69.875 39.05C72.95 40.325 75.1 41.65 76.425 43.25C76.65 43.55 76.85 43.825 77.05 44.15C77.275 44.5 77.45 44.85 77.55 45.225C77.65 45.45 77.725 45.65 77.775 45.875C78.425 48 78.025 50.5751 76.725 53.8001Z" fill="#B8FFE1"/>
<path opacity="0.4" d="M85.4 65.5V70.375C85.4 70.875 85.375 71.375 85.35 71.85C84.875 80.6 80 85 70.75 85H51.25C50.625 85 50.05 84.9501 49.475 84.8751C41.525 84.3501 37.275 80.1001 36.725 72.1501C36.65 71.5501 36.6 70.975 36.6 70.375V65.5C36.6 60.475 39.65 56.15 44 54.275C45.5 53.625 47.1 53.3 48.8 53.3H73.2C74.425 53.3 75.6 53.4751 76.725 53.8001C81.725 55.3251 85.4 59.975 85.4 65.5Z" fill="#B8FFE1"/>
<path opacity="0.6" d="M48.375 43.825L44 54.275C39.65 56.15 36.6 60.475 36.6 65.5V58.175C36.6 51.075 41.65 45.15 48.375 43.825Z" fill="#B8FFE1"/>
<path opacity="0.6" d="M85.4 58.1751V65.5001C85.4 59.9751 81.725 55.3251 76.725 53.8001C78.025 50.5751 78.425 48.0001 77.775 45.8751C77.725 45.6501 77.65 45.4501 77.55 45.2251C82.225 47.6501 85.4 52.5751 85.4 58.1751Z" fill="#B8FFE1"/>
<path d="M67.25 66.725H62.875V62.5C62.875 61.475 62.025 60.625 61 60.625C59.975 60.625 59.125 61.475 59.125 62.5V66.725H54.75C53.725 66.725 52.875 67.575 52.875 68.6C52.875 69.625 53.725 70.475 54.75 70.475H59.125V75C59.125 76.025 59.975 76.875 61 76.875C62.025 76.875 62.875 76.025 62.875 75V70.475H67.25C68.275 70.475 69.125 69.625 69.125 68.6C69.125 67.575 68.275 66.725 67.25 66.725Z" fill="#B8FFE1"/>
</svg>
