<svg width="121" height="120" viewBox="0 0 121 120" fill="none" xmlns="http://www.w3.org/2000/svg">
<circle cx="60.5" cy="60" r="60" fill="#113A2D"/>
<path opacity="0.4" d="M77.675 35H72.925C67.475 35 64.6 37.875 64.6 43.325V48.075C64.6 53.525 67.475 56.4 72.925 56.4H77.675C83.125 56.4 86 53.525 86 48.075V43.325C86 37.875 83.125 35 77.675 35Z" fill="#B8FFE1"/>
<path opacity="0.4" d="M49.1 63.575H44.35C38.875 63.575 36 66.45 36 71.9V76.65C36 82.125 38.875 85 44.325 85H49.075C54.525 85 57.4 82.125 57.4 76.675V71.925C57.425 66.45 54.55 63.575 49.1 63.575Z" fill="#B8FFE1"/>
<path d="M46.725 56.45C52.6483 56.45 57.45 51.6483 57.45 45.725C57.45 39.8017 52.6483 35 46.725 35C40.8017 35 36 39.8017 36 45.725C36 51.6483 40.8017 56.45 46.725 56.45Z" fill="#B8FFE1"/>
<path d="M75.275 85C81.1982 85 86 80.1983 86 74.275C86 68.3518 81.1982 63.55 75.275 63.55C69.3517 63.55 64.55 68.3518 64.55 74.275C64.55 80.1983 69.3517 85 75.275 85Z" fill="#B8FFE1"/>
</svg>
