<svg width="121" height="120" viewBox="0 0 121 120" fill="none" xmlns="http://www.w3.org/2000/svg">
<circle cx="60.5" cy="60" r="60" fill="#113A2D"/>
<path d="M63.95 59.65C62.95 59.65 62.05 59.1001 61.625 58.2001L58 50.9751L56.9501 52.925C56.3751 54 55.2251 54.675 54.0001 54.675H52.175C51.15 54.675 50.3 53.825 50.3 52.8C50.3 51.775 51.15 50.925 52.175 50.925H53.775L55.75 47.275C56.225 46.425 57.175 45.85 58.075 45.9C59.05 45.9 59.925 46.475 60.375 47.325L63.95 54.475L64.8 52.75C65.375 51.6 66.5 50.9 67.8 50.9H69.825C70.85 50.9 71.7 51.75 71.7 52.775C71.7 53.8 70.85 54.65 69.825 54.65H68.0501L66.275 58.1751C65.825 59.1001 64.95 59.65 63.95 59.65Z" fill="#B8FFE1"/>
<path opacity="0.4" d="M37.875 76.6251C36.85 76.6251 36 75.7751 36 74.7501V60.5001C35.875 53.7251 38.4 47.3251 43.1 42.5251C47.8 37.7501 54.1001 35.125 60.8751 35.125C74.7251 35.125 86 46.4 86 60.25V74.5C86 75.525 85.15 76.375 84.125 76.375C83.1 76.375 82.25 75.525 82.25 74.5V60.25C82.25 48.475 72.6751 38.875 60.8751 38.875C55.1001 38.875 49.75 41.1 45.775 45.15C41.775 49.225 39.65 54.65 39.75 60.45V74.7251C39.75 75.7751 38.925 76.6251 37.875 76.6251Z" fill="#B8FFE1"/>
<path d="M45.85 61.125H45.525C40.275 61.125 36 65.4 36 70.65V75.35C36 80.6 40.275 84.875 45.525 84.875H45.85C51.1 84.875 55.375 80.6 55.375 75.35V70.65C55.375 65.4 51.1 61.125 45.85 61.125Z" fill="#B8FFE1"/>
<path d="M76.475 61.125H76.15C70.9 61.125 66.625 65.4 66.625 70.65V75.35C66.625 80.6 70.9 84.875 76.15 84.875H76.475C81.725 84.875 86 80.6 86 75.35V70.65C86 65.4 81.725 61.125 76.475 61.125Z" fill="#B8FFE1"/>
</svg>
