<svg width="121" height="120" viewBox="0 0 121 120" fill="none" xmlns="http://www.w3.org/2000/svg">
<circle cx="60.5" cy="60" r="60" fill="#113A2D"/>
<path d="M74 61C67.375 61 62 66.375 62 73C62 75.25 62.625 77.375 63.75 79.175C65.825 82.65 69.625 85 74 85C78.375 85 82.2 82.65 84.25 79.175C85.35 77.375 86 75.25 86 73C86 66.375 80.625 61 74 61ZM79.95 71.425L73.55 77.325C73.2 77.65 72.725 77.825 72.275 77.825C71.8 77.825 71.325 77.65 70.95 77.275L68 74.325C67.275 73.6 67.275 72.4 68 71.675C68.725 70.95 69.925 70.95 70.65 71.675L72.325 73.35L77.4 68.65C78.15 67.95 79.35 68 80.05 68.75C80.75 69.525 80.7 70.725 79.95 71.425Z" fill="#B8FFE1"/>
<path opacity="0.4" d="M86 51.725C86 54.7 85.525 57.45 84.7 60C84.175 61.675 83.5 63.275 82.7 64.75C80.5 62.425 77.425 61 74 61C67.375 61 62 66.375 62 73C62 76.075 63.175 78.875 65.075 81C64.15 81.425 63.3 81.775 62.55 82.025C61.7 82.325 60.3 82.325 59.45 82.025C53.425 79.975 41.25 72.5 37.3 60C36.475 57.45 36 54.7 36 51.725C36 44 42.225 37.75 49.9 37.75C54.425 37.75 58.475 39.95 61 43.325C63.525 39.95 67.575 37.75 72.1 37.75C79.775 37.75 86 44 86 51.725Z" fill="#B8FFE1"/>
</svg>
