<svg width="48" height="48" viewBox="0 0 48 48" fill="none" xmlns="http://www.w3.org/2000/svg">
<g clip-path="url(#clip0_33_202)" filter="url(#filter0_dd_33_202)">
<path d="M6.505 16.13C5.12167 16.13 4.005 17.2467 4.005 18.63V21.3467C4.005 21.675 4.06967 22.0001 4.19531 22.3034C4.32094 22.6067 4.50509 22.8823 4.73724 23.1144C4.96938 23.3466 5.24498 23.5307 5.5483 23.6564C5.85161 23.782 6.1767 23.8467 6.505 23.8467C6.83331 23.8467 7.1584 23.782 7.46171 23.6564C7.76503 23.5307 8.04063 23.3466 8.27277 23.1144C8.50492 22.8823 8.68907 22.6067 8.8147 22.3034C8.94034 22.0001 9.005 21.675 9.005 21.3467V18.63C9.005 17.2467 7.88834 16.13 6.505 16.13ZM41.495 16.13C40.1117 16.13 38.995 17.2467 38.995 18.63V21.3467C38.995 22.0097 39.2584 22.6456 39.7272 23.1144C40.1961 23.5833 40.832 23.8467 41.495 23.8467C42.158 23.8467 42.7939 23.5833 43.2628 23.1144C43.7316 22.6456 43.995 22.0097 43.995 21.3467V18.63C43.995 17.2467 42.8783 16.13 41.495 16.13ZM15.1333 24.3117C13.75 24.3117 12.6333 25.4283 12.6333 26.8117V29.5283C12.6333 30.1914 12.8967 30.8273 13.3656 31.2961C13.8344 31.7649 14.4703 32.0283 15.1333 32.0283C15.7964 32.0283 16.4323 31.7649 16.9011 31.2961C17.3699 30.8273 17.6333 30.1914 17.6333 29.5283V26.8283C17.6333 25.445 16.5167 24.3283 15.1333 24.3283V24.3117ZM15.1333 7.95C13.75 7.95 12.6333 9.06667 12.6333 10.45V19.3783C12.6333 20.0414 12.8967 20.6773 13.3656 21.1461C13.8344 21.6149 14.4703 21.8783 15.1333 21.8783C15.7964 21.8783 16.4323 21.6149 16.9011 21.1461C17.3699 20.6773 17.6333 20.0414 17.6333 19.3783V10.43C17.6333 9.04667 16.5167 7.93 15.1333 7.93V7.95ZM32.8633 7.95C31.48 7.95 30.3633 9.06667 30.3633 10.45V13.1833C30.3633 13.8464 30.6267 14.4823 31.0956 14.9511C31.5644 15.4199 32.2003 15.6833 32.8633 15.6833C33.5264 15.6833 34.1623 15.4199 34.6311 14.9511C35.0999 14.4823 35.3633 13.8464 35.3633 13.1833V10.45C35.3633 9.06667 34.2467 7.95 32.8633 7.95ZM24 0C22.6167 0 21.5 1.11667 21.5 2.5V5.21667C21.5 5.87971 21.7634 6.51559 22.2322 6.98443C22.7011 7.45327 23.337 7.71667 24 7.71667C24.663 7.71667 25.2989 7.45327 25.7678 6.98443C26.2366 6.51559 26.5 5.87971 26.5 5.21667V2.5C26.5 1.11667 25.3833 0.00166667 24 0.00166667V0ZM24 32.2583C22.6167 32.2583 21.5 33.375 21.5 34.7583V37.4917C21.4989 37.82 21.5625 38.1453 21.6871 38.449C21.8117 38.7527 21.995 39.029 22.2263 39.2619C22.4577 39.4948 22.7327 39.6799 23.0356 39.8065C23.3385 39.9332 23.6634 39.9989 23.9917 40C24.32 40.0011 24.6453 39.9375 24.949 39.8129C25.2527 39.6883 25.529 39.505 25.7619 39.2737C25.9948 39.0423 26.1799 38.7673 26.3065 38.4644C26.4332 38.1615 26.4989 37.8366 26.5 37.5083V34.775C26.5 33.4083 25.3833 32.275 24 32.275V32.2583ZM32.865 18.1633C31.4817 18.1633 30.365 19.2967 30.365 20.6633V29.5433C30.365 30.2064 30.6284 30.8423 31.0972 31.3111C31.5661 31.7799 32.202 32.0433 32.865 32.0433C33.528 32.0433 34.1639 31.7799 34.6328 31.3111C35.1016 30.8423 35.365 30.2064 35.365 29.5433V20.6617C35.365 19.2783 34.2483 18.1617 32.865 18.1617V18.1633ZM24 10.2133C22.6167 10.2133 21.5 11.3467 21.5 12.7133V27.26C21.5 27.923 21.7634 28.5589 22.2322 29.0278C22.7011 29.4966 23.337 29.76 24 29.76C24.663 29.76 25.2989 29.4966 25.7678 29.0278C26.2366 28.5589 26.5 27.923 26.5 27.26V12.73C26.5 11.3467 25.3833 10.23 24 10.23V10.2133Z" fill="white"/>
</g>
<defs>
<filter id="filter0_dd_33_202" x="0" y="0" width="48" height="48" filterUnits="userSpaceOnUse" color-interpolation-filters="sRGB">
<feFlood flood-opacity="0" result="BackgroundImageFix"/>
<feColorMatrix in="SourceAlpha" type="matrix" values="0 0 0 0 0 0 0 0 0 0 0 0 0 0 0 0 0 0 127 0" result="hardAlpha"/>
<feOffset dy="4"/>
<feGaussianBlur stdDeviation="2"/>
<feComposite in2="hardAlpha" operator="out"/>
<feColorMatrix type="matrix" values="0 0 0 0 0 0 0 0 0 0 0 0 0 0 0 0 0 0 0.25 0"/>
<feBlend mode="normal" in2="BackgroundImageFix" result="effect1_dropShadow_33_202"/>
<feColorMatrix in="SourceAlpha" type="matrix" values="0 0 0 0 0 0 0 0 0 0 0 0 0 0 0 0 0 0 127 0" result="hardAlpha"/>
<feOffset dy="4"/>
<feGaussianBlur stdDeviation="2"/>
<feComposite in2="hardAlpha" operator="out"/>
<feColorMatrix type="matrix" values="0 0 0 0 0 0 0 0 0 0 0 0 0 0 0 0 0 0 0.25 0"/>
<feBlend mode="normal" in2="effect1_dropShadow_33_202" result="effect2_dropShadow_33_202"/>
<feBlend mode="normal" in="SourceGraphic" in2="effect2_dropShadow_33_202" result="shape"/>
</filter>
<clipPath id="clip0_33_202">
<rect width="40" height="40" fill="white" transform="translate(4)"/>
</clipPath>
</defs>
</svg>
