<svg width="209" height="61" viewBox="0 0 209 61" fill="none" xmlns="http://www.w3.org/2000/svg">
<path d="M72.3494 46C72.0161 46.2333 71.7661 46.35 71.5994 46.35C71.2327 46.35 70.9827 46.2 70.8494 45.9C69.8494 43.9 69.0161 41.2 68.3494 37.8C68.3161 37.6667 68.2661 37.6 68.1994 37.6L67.8994 37.8C66.9994 39.4 65.9494 40.8833 64.7494 42.25C63.5827 43.6167 62.6327 44.5833 61.8994 45.15L60.7994 46C60.4661 46.3 60.1994 46.45 59.9994 46.45C59.6327 46.45 59.3827 46.2833 59.2494 45.95C58.5161 44.55 57.6661 41.8333 56.6994 37.8L56.2494 35.75C55.6161 32.8167 54.9661 30.4667 54.2994 28.7C53.6661 26.9333 53.1827 25.9 52.8494 25.6L52.3494 25.15C52.0494 25.05 51.8994 24.8833 51.8994 24.65C51.8994 24.1833 52.5827 23.6833 53.9494 23.15C55.3494 22.6167 56.4327 22.35 57.1994 22.35C57.9661 22.35 58.4661 22.6667 58.6994 23.3C58.9661 23.9 59.3661 25.6167 59.8994 28.45C61.2994 35.9167 62.3161 39.65 62.9494 39.65C63.1494 39.65 63.3661 39.4833 63.5994 39.15C63.8661 38.7833 64.1661 38.35 64.4994 37.85C64.8661 37.35 65.3494 36.4833 65.9494 35.25C66.5494 34.0167 66.8494 32.9333 66.8494 32C66.8494 31.8333 66.7327 31.2333 66.4994 30.2C66.2661 29.1333 65.9161 28.1167 65.4494 27.15C65.0161 26.15 64.6661 25.5833 64.3994 25.45C63.7994 25.1167 63.4994 24.8333 63.4994 24.6C63.4994 24.2 64.1827 23.7333 65.5494 23.2C66.9161 22.6333 68.1494 22.35 69.2494 22.35C69.7494 22.35 70.0994 22.65 70.2994 23.25C70.7994 24.8167 71.3994 27.6333 72.0994 31.7C72.9994 36.9 73.8327 39.5 74.5994 39.5C74.8661 39.5 75.2661 39.1333 75.7994 38.4C76.3327 37.6333 76.8494 36.5333 77.3494 35.1C77.8827 33.6667 78.1494 32.45 78.1494 31.45C78.1494 30.4167 78.0994 29.6333 77.9994 29.1C77.9327 28.5333 77.6494 27.8833 77.1494 27.15C76.6494 26.4167 76.0827 26 75.4494 25.9C74.8161 25.7667 74.4994 25.55 74.4994 25.25C74.4994 24.7833 75.1827 24.1833 76.5494 23.45C77.9494 22.7167 79.3827 22.35 80.8494 22.35C82.2494 22.35 82.9494 23.75 82.9494 26.55C82.9494 30.05 81.9161 33.65 79.8494 37.35C77.7827 41.05 75.2827 43.9333 72.3494 46ZM88.7764 32.3L88.8264 33.55C88.8264 33.75 88.9597 33.85 89.2264 33.85C90.293 33.75 91.2264 33.4833 92.0264 33.05C92.8264 32.5833 93.4264 32.0667 93.8264 31.5C94.6264 30.2667 95.0597 29.2 95.1264 28.3L95.1764 27.7C95.1764 25.9 94.4597 25 93.0264 25C91.9597 25 91.093 25.4667 90.4264 26.4C89.3264 27.8667 88.7764 29.8333 88.7764 32.3ZM99.6764 38.95C99.6764 40.2167 99.4097 41.3333 98.8764 42.3C98.3764 43.2333 97.793 43.9333 97.1264 44.4C96.493 44.8333 95.743 45.1833 94.8764 45.45C93.7764 45.7833 92.7264 45.95 91.7264 45.95C88.9264 45.95 86.8597 44.9 85.5264 42.8C84.193 40.7 83.5264 38.0333 83.5264 34.8C83.5264 31.5333 84.343 28.6333 85.9764 26.1C87.643 23.5667 90.1264 22.3 93.4264 22.3C96.4264 22.3 98.4597 23.35 99.5264 25.45C99.9597 26.25 100.176 27.0167 100.176 27.75C100.176 28.45 100.143 29.0167 100.076 29.45C100.01 29.85 99.7764 30.4667 99.3764 31.3C98.9764 32.1333 98.443 32.8833 97.7764 33.55C97.1097 34.2167 96.0597 34.85 94.6264 35.45C93.193 36.05 91.5097 36.45 89.5764 36.65C89.3097 36.65 89.1764 36.7667 89.1764 37C89.1764 37.3 89.2764 37.75 89.4764 38.35C89.7097 38.9167 89.9597 39.4 90.2264 39.8C90.9597 40.7333 92.043 41.2 93.4764 41.2C94.9097 41.2 96.1264 40.7333 97.1264 39.8C97.6597 39.3 98.093 38.6833 98.4264 37.95C98.5597 37.6833 98.7264 37.55 98.9264 37.55C99.1597 37.55 99.343 37.7333 99.4764 38.1C99.6097 38.4667 99.6764 38.75 99.6764 38.95ZM112.046 27.75L110.896 28.05C110.296 28.05 109.996 27.5 109.996 26.4C109.996 25.2667 110.396 24.3667 111.196 23.7C112.03 23 113.08 22.65 114.346 22.65C115.046 22.65 115.796 22.8667 116.596 23.3C117.396 23.7 118.063 24.2167 118.596 24.85C119.13 25.45 119.596 26.4167 119.996 27.75C120.43 29.05 120.646 30.5833 120.646 32.35C120.646 36.4167 119.546 39.7167 117.346 42.25C115.18 44.7833 112.03 46.05 107.896 46.05C106.696 46.05 105.513 45.9333 104.346 45.7L103.846 45.6C103.413 45.4667 103.163 45.2333 103.096 44.9C102.996 44.2 102.946 42.55 102.946 39.95L103.246 23.75C103.246 21.25 103.18 19.3333 103.046 18L102.946 17.3C102.88 16.3667 102.68 15.5667 102.346 14.9C102.046 14.2333 101.746 13.8 101.446 13.6L101.046 13.35C100.813 13.2167 100.696 13.0667 100.696 12.9C100.696 12.4 101.53 11.8167 103.196 11.15C104.863 10.45 106.08 10.1 106.846 10.1C107.613 10.1 108.013 10.3 108.046 10.7C108.28 12.7333 108.396 15.6333 108.396 19.4L108.146 31.4C108.146 36.6333 108.296 40.25 108.596 42.25C108.63 42.7167 109.146 42.95 110.146 42.95C111.18 42.95 112.063 42.6667 112.796 42.1C113.53 41.5333 114.08 40.7833 114.446 39.85C115.113 38.15 115.446 36.2667 115.446 34.2C115.446 33.2333 115.313 32.1833 115.046 31.05C114.58 28.85 113.58 27.75 112.046 27.75ZM127.555 18.25L126.355 18.2C125.455 18.2 124.872 18.4167 124.605 18.85C124.539 18.95 124.455 19 124.355 19C123.922 19 123.705 18.2667 123.705 16.8C123.705 15.3 123.922 14.35 124.355 13.95C124.822 13.55 125.605 13.35 126.705 13.35C127.839 13.35 128.605 13.55 129.005 13.95C129.405 14.3167 129.605 14.95 129.605 15.85C129.605 16.75 129.455 17.3833 129.155 17.75C128.855 18.0833 128.322 18.25 127.555 18.25ZM123.555 43.5L124.105 31.85C124.105 29.0833 123.789 27.2 123.155 26.2C122.955 25.8667 122.722 25.6167 122.455 25.45C122.255 25.3833 122.155 25.25 122.155 25.05C122.155 24.45 123.005 23.8667 124.705 23.3C126.405 22.7333 127.639 22.45 128.405 22.45C129.205 22.45 129.622 22.65 129.655 23.05C129.655 23.7167 129.555 25.6167 129.355 28.75C129.189 31.85 129.105 35.1167 129.105 38.55C129.105 41.9833 129.305 44.1167 129.705 44.95C129.805 45.1167 129.855 45.2833 129.855 45.45C129.855 45.8833 129.222 46.1 127.955 46.1C126.689 46.1 125.389 45.7667 124.055 45.1C123.722 44.9333 123.555 44.4 123.555 43.5ZM148.103 38.15C148.103 39.5833 147.82 40.8333 147.253 41.9C146.72 42.9667 146.103 43.75 145.403 44.25C144.703 44.75 143.87 45.15 142.903 45.45C141.637 45.85 140.487 46.05 139.453 46.05C137.287 46.05 135.487 45.6333 134.053 44.8C132.62 43.9333 131.903 42.5667 131.903 40.7C131.903 39.6 132.203 38.7 132.803 38C133.737 36.9667 134.853 36.45 136.153 36.45C136.553 36.45 136.753 36.6333 136.753 37C136.753 37.0333 136.67 37.3 136.503 37.8C136.37 38.2667 136.303 38.8667 136.303 39.6C136.303 40.3333 136.587 40.9833 137.153 41.55C137.753 42.1167 138.47 42.4 139.303 42.4C140.137 42.4 140.803 42.2667 141.303 42C141.803 41.7 142.153 41.3333 142.353 40.9C142.653 40.3 142.803 39.7333 142.803 39.2C142.803 38.2333 142.32 37.4 141.353 36.7C140.387 36 139.32 35.45 138.153 35.05C136.987 34.65 135.92 33.9833 134.953 33.05C133.987 32.1167 133.503 30.95 133.503 29.55C133.503 27.15 134.253 25.35 135.753 24.15C137.287 22.95 139.353 22.35 141.953 22.35C143.087 22.35 144.27 22.5167 145.503 22.85C146.77 23.15 147.403 23.6833 147.403 24.45C147.403 25.1833 147.27 25.8667 147.003 26.5C146.77 27.1333 146.47 27.45 146.103 27.45C145.903 27.45 145.77 27.3833 145.703 27.25C145.637 27.0833 145.52 26.9 145.353 26.7C145.187 26.5 144.787 26.25 144.153 25.95C143.52 25.6167 142.97 25.45 142.503 25.45C142.07 25.45 141.77 25.4667 141.603 25.5C141.47 25.5 141.22 25.55 140.853 25.65C140.487 25.7167 140.153 25.8333 139.853 26C139.087 26.4333 138.703 27.0667 138.703 27.9C138.703 28.4333 138.82 28.8333 139.053 29.1C139.287 29.3333 139.47 29.5167 139.603 29.65C139.737 29.7833 139.97 29.95 140.303 30.15C140.637 30.3167 140.87 30.4333 141.003 30.5C141.137 30.5667 141.437 30.7167 141.903 30.95C142.37 31.15 142.67 31.2833 142.803 31.35C146.337 33.0167 148.103 35.2833 148.103 38.15ZM154.991 26.15C154.124 26.1833 153.491 26.2167 153.091 26.25C152.724 26.25 152.541 26.15 152.541 25.95C152.541 25.75 152.641 25.55 152.841 25.35C154.974 23.3833 158.574 22.4 163.641 22.4C165.374 22.4 166.741 22.55 167.741 22.85L168.241 23C168.641 23.1667 168.841 23.35 168.841 23.55C168.841 23.7167 168.724 23.85 168.491 23.95C167.591 24.2167 166.724 24.65 165.891 25.25C165.057 25.8167 164.641 26.2167 164.641 26.45L164.941 26.8C166.007 27.4 166.824 28.35 167.391 29.65C167.991 30.95 168.324 32.1 168.391 33.1L168.491 34.65C168.491 37.95 167.574 40.6667 165.741 42.8C163.907 44.9333 161.407 46 158.241 46C156.641 46 155.257 45.7167 154.091 45.15C152.924 44.5833 152.057 43.95 151.491 43.25C150.957 42.5167 150.524 41.7 150.191 40.8C149.791 39.5667 149.591 38.3 149.591 37C149.591 35.6667 149.807 34.3333 150.241 33C150.707 31.6667 151.224 30.6833 151.791 30.05C152.391 29.4167 153.057 28.9 153.791 28.5C154.724 28 155.474 27.75 156.041 27.75C156.607 27.75 156.891 27.8667 156.891 28.1L156.591 28.6C155.857 29.4667 155.324 30.6 154.991 32C154.691 33.4 154.541 34.65 154.541 35.75C154.541 36.8167 154.674 37.8833 154.941 38.95C155.207 40.0167 155.507 40.8167 155.841 41.35C156.174 41.85 156.557 42.2333 156.991 42.5C157.624 42.9 158.291 43.1 158.991 43.1C159.691 43.1 160.374 42.8333 161.041 42.3C161.707 41.7333 162.191 41 162.491 40.1C163.091 38.4333 163.391 36.7167 163.391 34.95C163.391 32.15 162.674 29.9833 161.241 28.45C159.841 26.9167 157.757 26.15 154.991 26.15ZM181.087 22.55C181.687 22.55 182.22 22.6333 182.687 22.8C183.187 22.9333 183.454 23 183.487 23L183.787 22.75L183.587 17.3C183.52 16.3667 183.32 15.5667 182.987 14.9C182.654 14.2333 182.354 13.8 182.087 13.6L181.637 13.35C181.437 13.2167 181.337 13.0667 181.337 12.9C181.337 12.4 182.104 11.8167 183.637 11.15C185.204 10.4833 186.42 10.15 187.287 10.15C188.154 10.15 188.62 10.3333 188.687 10.7C188.854 11.8333 188.937 14 188.937 17.2C188.937 20.3667 188.854 23.4833 188.687 26.55C188.554 29.6167 188.487 33.1 188.487 37C188.487 40.8667 188.737 43.3 189.237 44.3C189.37 44.5333 189.437 44.75 189.437 44.95C189.437 45.45 188.72 45.7 187.287 45.7C184.554 45.7 183.187 45.05 183.187 43.75C183.12 43.2167 183.087 42.4 183.087 41.3C183.087 40.1667 183.187 38.0833 183.387 35.05C183.62 31.9833 183.737 29.6333 183.737 28C183.737 26.3333 182.904 25.5 181.237 25.5C179.604 25.5 178.354 26.4667 177.487 28.4C176.62 30.3333 176.187 32.2667 176.187 34.2C176.187 38.3 177.22 40.35 179.287 40.35C179.587 40.35 179.87 40.3 180.137 40.2C180.437 40.0667 180.62 40 180.687 40C180.954 40 181.154 40.1667 181.287 40.5C181.454 40.8333 181.537 41.1667 181.537 41.5C181.537 42.6333 181.087 43.6 180.187 44.4C179.287 45.1667 178.187 45.55 176.887 45.55C174.887 45.55 173.37 44.6833 172.337 42.95C171.337 41.1833 170.837 39 170.837 36.4C170.837 33.1 171.62 30.0333 173.187 27.2C173.987 25.8 175.07 24.6833 176.437 23.85C177.804 22.9833 179.354 22.55 181.087 22.55ZM196.442 32.3L196.492 33.55C196.492 33.75 196.626 33.85 196.892 33.85C197.959 33.75 198.892 33.4833 199.692 33.05C200.492 32.5833 201.092 32.0667 201.492 31.5C202.292 30.2667 202.726 29.2 202.792 28.3L202.842 27.7C202.842 25.9 202.126 25 200.692 25C199.626 25 198.759 25.4667 198.092 26.4C196.992 27.8667 196.442 29.8333 196.442 32.3ZM207.342 38.95C207.342 40.2167 207.076 41.3333 206.542 42.3C206.042 43.2333 205.459 43.9333 204.792 44.4C204.159 44.8333 203.409 45.1833 202.542 45.45C201.442 45.7833 200.392 45.95 199.392 45.95C196.592 45.95 194.526 44.9 193.192 42.8C191.859 40.7 191.192 38.0333 191.192 34.8C191.192 31.5333 192.009 28.6333 193.642 26.1C195.309 23.5667 197.792 22.3 201.092 22.3C204.092 22.3 206.126 23.35 207.192 25.45C207.626 26.25 207.842 27.0167 207.842 27.75C207.842 28.45 207.809 29.0167 207.742 29.45C207.676 29.85 207.442 30.4667 207.042 31.3C206.642 32.1333 206.109 32.8833 205.442 33.55C204.776 34.2167 203.726 34.85 202.292 35.45C200.859 36.05 199.176 36.45 197.242 36.65C196.976 36.65 196.842 36.7667 196.842 37C196.842 37.3 196.942 37.75 197.142 38.35C197.376 38.9167 197.626 39.4 197.892 39.8C198.626 40.7333 199.709 41.2 201.142 41.2C202.576 41.2 203.792 40.7333 204.792 39.8C205.326 39.3 205.759 38.6833 206.092 37.95C206.226 37.6833 206.392 37.55 206.592 37.55C206.826 37.55 207.009 37.7333 207.142 38.1C207.276 38.4667 207.342 38.75 207.342 38.95Z" fill="white"/>
<path d="M40 30C40 41.0967 30.97 50 20 50C8.90333 50 0 41.0967 0 30C0 18.9033 8.90333 10 20 10C30.97 10 40 18.9033 40 30ZM3.35667 30C3.35667 39.1617 10.8383 46.645 20 46.645C29.1633 46.645 36.6467 39.1617 36.6467 30C36.6467 20.8367 29.1633 13.355 20 13.355C10.8383 13.355 3.35667 20.8367 3.35667 30ZM21.9367 20.1917L21.9367 34.645C21.9367 35.285 21.4217 35.8033 20.785 35.8083H19.0983C18.4533 35.8083 17.9367 35.29 17.9367 34.645L17.9367 20.065C17.9367 19.42 18.455 18.9033 19.0983 18.9033H20.775C21.42 19.0317 21.9367 19.5483 21.9367 20.1917ZM15.485 23.935L15.485 38.515C15.4883 39.1533 14.9733 39.6767 14.3333 39.6783H12.65C12.1317 39.6783 11.615 39.1617 11.615 38.5167L11.615 23.9367C11.615 23.42 12.1333 22.9033 12.6467 22.9033H14.3233C14.9667 22.9017 15.485 23.42 15.485 23.935ZM24.515 38.515L24.515 23.935C24.515 23.2883 25.0333 22.775 25.6767 22.775H27.3533C27.9917 22.7717 28.5117 23.29 28.515 23.9267L28.515 38.515C28.3883 39.1617 27.87 39.6767 27.2267 39.6767H25.55C25.0333 39.6783 24.515 39.1617 24.515 38.515Z" fill="white"/>
</svg>
