<svg width="40" height="40" viewBox="0 0 40 40" fill="none" xmlns="http://www.w3.org/2000/svg">
<path d="M8.93333 0.0616642C4.01667 0.0616642 0 4.07833 0 8.995V31.0067C0 35.9233 4.01667 39.94 8.93333 39.94H31.0667C35.975 39.94 40 35.9233 40 31.0067V8.99333C40 4.07666 35.975 0.0599976 31.0667 0.0599976L8.93333 0.0616642ZM19.9083 7.20333C23.2697 7.20376 26.4974 8.5196 28.9011 10.8693C31.3047 13.2191 32.6934 16.4162 32.77 19.7767L32.7783 32.9367H27.1283V30.7267C25.001 32.171 22.488 32.9411 19.9167 32.9367C18.5675 32.9347 17.2269 32.7222 15.9433 32.3067V24.59C17.0557 25.5696 18.4877 26.109 19.97 26.1067C21.3891 26.1065 22.7639 25.6125 23.8584 24.7092C24.9529 23.806 25.6989 22.5499 25.9683 21.1567H23.8283C23.5521 22.078 22.9552 22.87 22.1457 23.3894C21.3361 23.9088 20.3674 24.1213 19.4148 23.9884C18.4622 23.8554 17.5886 23.3859 16.9522 22.6647C16.3157 21.9436 15.9585 21.0184 15.945 20.0567V20.005C15.945 18.18 17.1583 16.6333 18.825 16.145V14.005C17.4305 14.2739 16.173 15.0198 15.2683 16.1145C14.3636 17.2093 13.8681 18.5848 13.8667 20.005V31.425C11.3347 30.0757 9.32634 27.9189 8.16074 25.2973C6.99514 22.6757 6.73918 19.7398 7.43353 16.956C8.12789 14.1723 9.73272 11.7005 11.993 9.93342C14.2533 8.16635 17.0393 7.20542 19.9083 7.20333ZM19.96 10.32V12.3833H19.97C21.9914 12.3842 23.9297 13.1877 25.3589 14.6172C26.7881 16.0467 27.5912 17.9853 27.5917 20.0067V20.0233H29.6533V20.0067C29.6533 17.4385 28.6331 14.9755 26.8172 13.1595C25.0012 11.3435 22.5382 10.3233 19.97 10.3233L19.96 10.32ZM19.96 13.9017V15.9783H19.97C20.4988 15.9779 21.0226 16.0818 21.5112 16.284C21.9998 16.4862 22.4438 16.7828 22.8177 17.1568C23.1915 17.5309 23.488 17.9749 23.69 18.4637C23.892 18.9524 23.9957 19.4762 23.995 20.005V20.0217H26.0733V20.005C26.0733 18.3863 25.4303 16.8339 24.2857 15.6893C23.1411 14.5447 21.5887 13.9017 19.97 13.9017H19.96ZM19.96 17.655C18.66 17.655 17.6117 18.7033 17.6117 20.005C17.6117 21.305 18.66 22.3533 19.9617 22.3533C21.2617 22.3533 22.31 21.305 22.31 20.0033C22.31 18.7033 21.2617 17.655 19.96 17.655Z" fill="white"/>
</svg>
